<mxfile host="fe1e5920-f824-44fc-a474-174ab6036742" modified="2020-08-03T18:25:30.421Z" agent="5.0 (Windows NT 10.0; Win64; x64) AppleWebKit/537.36 (KHTML, like Gecko) Code/1.47.3 Chrome/78.0.3904.130 Electron/7.3.2 Safari/537.36" etag="Uh1kyXP8BgVc9EhM2vOk" version="13.1.3">
    <diagram id="6hGFLwfOUW9BJ-s0fimq" name="Page-1">
        <mxGraphModel dx="2263" dy="2065" grid="1" gridSize="10" guides="1" tooltips="1" connect="1" arrows="1" fold="1" page="1" pageScale="1" pageWidth="827" pageHeight="1169" math="0" shadow="0">
            <root>
                <mxCell id="0"/>
                <mxCell id="1" parent="0"/>
                <mxCell id="70" value="" style="edgeStyle=entityRelationEdgeStyle;fontSize=12;html=1;endArrow=ERzeroToMany;endFill=1;startArrow=ERzeroToMany;entryX=0.009;entryY=0.14;entryDx=0;entryDy=0;entryPerimeter=0;" parent="1" source="6" target="25" edge="1">
                    <mxGeometry width="100" height="100" relative="1" as="geometry">
                        <mxPoint y="130" as="sourcePoint"/>
                        <mxPoint x="410" y="208" as="targetPoint"/>
                    </mxGeometry>
                </mxCell>
                <mxCell id="74" value="" style="edgeStyle=entityRelationEdgeStyle;fontSize=12;html=1;endArrow=ERoneToMany;entryX=0;entryY=0.5;entryDx=0;entryDy=0;exitX=1;exitY=0.5;exitDx=0;exitDy=0;startArrow=ERmandOne;startFill=0;" parent="1" source="17" target="12" edge="1">
                    <mxGeometry width="100" height="100" relative="1" as="geometry">
                        <mxPoint x="30" y="340" as="sourcePoint"/>
                        <mxPoint x="130" y="240" as="targetPoint"/>
                    </mxGeometry>
                </mxCell>
                <mxCell id="76" value="" style="edgeStyle=entityRelationEdgeStyle;fontSize=12;html=1;endArrow=ERoneToMany;startArrow=ERmandOne;exitX=1;exitY=0.5;exitDx=0;exitDy=0;" parent="1" source="37" target="320" edge="1">
                    <mxGeometry width="100" height="100" relative="1" as="geometry">
                        <mxPoint x="390" y="670" as="sourcePoint"/>
                        <mxPoint x="490" y="570" as="targetPoint"/>
                    </mxGeometry>
                </mxCell>
                <mxCell id="77" value="" style="edgeStyle=entityRelationEdgeStyle;fontSize=12;html=1;endArrow=ERoneToMany;startArrow=ERmandOne;entryX=0;entryY=0.5;entryDx=0;entryDy=0;" parent="1" source="15" target="28" edge="1">
                    <mxGeometry width="100" height="100" relative="1" as="geometry">
                        <mxPoint x="410" y="370" as="sourcePoint"/>
                        <mxPoint x="510" y="270" as="targetPoint"/>
                    </mxGeometry>
                </mxCell>
                <mxCell id="102" value="" style="edgeStyle=entityRelationEdgeStyle;fontSize=12;html=1;endArrow=ERoneToMany;startArrow=ERmandOne;exitX=1;exitY=0.5;exitDx=0;exitDy=0;entryX=0;entryY=0.5;entryDx=0;entryDy=0;" parent="1" source="19" target="37" edge="1">
                    <mxGeometry width="100" height="100" relative="1" as="geometry">
                        <mxPoint x="490" y="500" as="sourcePoint"/>
                        <mxPoint x="590" y="400" as="targetPoint"/>
                    </mxGeometry>
                </mxCell>
                <mxCell id="148" value="" style="edgeStyle=entityRelationEdgeStyle;fontSize=12;html=1;endArrow=ERoneToMany;startArrow=ERmandOne;jumpStyle=arc;" parent="1" source="138" target="52" edge="1">
                    <mxGeometry width="100" height="100" relative="1" as="geometry">
                        <mxPoint x="830" y="644" as="sourcePoint"/>
                        <mxPoint x="670" y="761" as="targetPoint"/>
                    </mxGeometry>
                </mxCell>
                <mxCell id="237" value="UserProfile" style="swimlane;fontStyle=0;childLayout=stackLayout;horizontal=1;startSize=26;horizontalStack=0;resizeParent=1;resizeParentMax=0;resizeLast=0;collapsible=1;marginBottom=0;align=center;fontSize=14;" parent="1" vertex="1">
                    <mxGeometry x="120" y="-270" width="160" height="160" as="geometry"/>
                </mxCell>
                <mxCell id="238" value="id" style="shape=partialRectangle;top=0;left=0;right=0;bottom=1;align=left;verticalAlign=middle;fillColor=none;spacingLeft=34;spacingRight=4;overflow=hidden;rotatable=0;points=[[0,0.5],[1,0.5]];portConstraint=eastwest;dropTarget=0;fontStyle=5;fontSize=12;" parent="237" vertex="1">
                    <mxGeometry y="26" width="160" height="30" as="geometry"/>
                </mxCell>
                <mxCell id="239" value="PK" style="shape=partialRectangle;top=0;left=0;bottom=0;fillColor=none;align=left;verticalAlign=middle;spacingLeft=4;spacingRight=4;overflow=hidden;rotatable=0;points=[];portConstraint=eastwest;part=1;fontSize=12;" parent="238" vertex="1" connectable="0">
                    <mxGeometry width="30" height="30" as="geometry"/>
                </mxCell>
                <mxCell id="240" value="first_name" style="shape=partialRectangle;top=0;left=0;right=0;bottom=0;align=left;verticalAlign=top;fillColor=none;spacingLeft=34;spacingRight=4;overflow=hidden;rotatable=0;points=[[0,0.5],[1,0.5]];portConstraint=eastwest;dropTarget=0;fontSize=12;" parent="237" vertex="1">
                    <mxGeometry y="56" width="160" height="26" as="geometry"/>
                </mxCell>
                <mxCell id="241" value="" style="shape=partialRectangle;top=0;left=0;bottom=0;fillColor=none;align=left;verticalAlign=top;spacingLeft=4;spacingRight=4;overflow=hidden;rotatable=0;points=[];portConstraint=eastwest;part=1;fontSize=12;" parent="240" vertex="1" connectable="0">
                    <mxGeometry width="30" height="26" as="geometry"/>
                </mxCell>
                <mxCell id="242" value="last_name" style="shape=partialRectangle;top=0;left=0;right=0;bottom=0;align=left;verticalAlign=top;fillColor=none;spacingLeft=34;spacingRight=4;overflow=hidden;rotatable=0;points=[[0,0.5],[1,0.5]];portConstraint=eastwest;dropTarget=0;fontSize=12;" parent="237" vertex="1">
                    <mxGeometry y="82" width="160" height="26" as="geometry"/>
                </mxCell>
                <mxCell id="243" value="" style="shape=partialRectangle;top=0;left=0;bottom=0;fillColor=none;align=left;verticalAlign=top;spacingLeft=4;spacingRight=4;overflow=hidden;rotatable=0;points=[];portConstraint=eastwest;part=1;fontSize=12;" parent="242" vertex="1" connectable="0">
                    <mxGeometry width="30" height="26" as="geometry"/>
                </mxCell>
                <mxCell id="326" value="phone_number" style="shape=partialRectangle;top=0;left=0;right=0;bottom=0;align=left;verticalAlign=top;fillColor=none;spacingLeft=34;spacingRight=4;overflow=hidden;rotatable=0;points=[[0,0.5],[1,0.5]];portConstraint=eastwest;dropTarget=0;fontSize=12;" vertex="1" parent="237">
                    <mxGeometry y="108" width="160" height="26" as="geometry"/>
                </mxCell>
                <mxCell id="327" value="" style="shape=partialRectangle;top=0;left=0;bottom=0;fillColor=none;align=left;verticalAlign=top;spacingLeft=4;spacingRight=4;overflow=hidden;rotatable=0;points=[];portConstraint=eastwest;part=1;fontSize=12;" vertex="1" connectable="0" parent="326">
                    <mxGeometry width="30" height="26" as="geometry"/>
                </mxCell>
                <mxCell id="244" value="user_id" style="shape=partialRectangle;top=0;left=0;right=0;bottom=0;align=left;verticalAlign=top;fillColor=none;spacingLeft=34;spacingRight=4;overflow=hidden;rotatable=0;points=[[0,0.5],[1,0.5]];portConstraint=eastwest;dropTarget=0;fontSize=12;" parent="237" vertex="1">
                    <mxGeometry y="134" width="160" height="26" as="geometry"/>
                </mxCell>
                <mxCell id="245" value="FK" style="shape=partialRectangle;top=0;left=0;bottom=0;fillColor=none;align=left;verticalAlign=top;spacingLeft=4;spacingRight=4;overflow=hidden;rotatable=0;points=[];portConstraint=eastwest;part=1;fontSize=12;" parent="244" vertex="1" connectable="0">
                    <mxGeometry width="30" height="26" as="geometry"/>
                </mxCell>
                <mxCell id="226" value="UserSettings" style="swimlane;fontStyle=0;childLayout=stackLayout;horizontal=1;startSize=26;horizontalStack=0;resizeParent=1;resizeParentMax=0;resizeLast=0;collapsible=1;marginBottom=0;align=center;fontSize=14;" parent="1" vertex="1">
                    <mxGeometry x="-100" y="-270" width="160" height="134" as="geometry"/>
                </mxCell>
                <mxCell id="227" value="id" style="shape=partialRectangle;top=0;left=0;right=0;bottom=1;align=left;verticalAlign=middle;fillColor=none;spacingLeft=34;spacingRight=4;overflow=hidden;rotatable=0;points=[[0,0.5],[1,0.5]];portConstraint=eastwest;dropTarget=0;fontStyle=5;fontSize=12;" parent="226" vertex="1">
                    <mxGeometry y="26" width="160" height="30" as="geometry"/>
                </mxCell>
                <mxCell id="228" value="PK" style="shape=partialRectangle;top=0;left=0;bottom=0;fillColor=none;align=left;verticalAlign=middle;spacingLeft=4;spacingRight=4;overflow=hidden;rotatable=0;points=[];portConstraint=eastwest;part=1;fontSize=12;" parent="227" vertex="1" connectable="0">
                    <mxGeometry width="30" height="30" as="geometry"/>
                </mxCell>
                <mxCell id="332" value="enable_notifications" style="shape=partialRectangle;top=0;left=0;right=0;bottom=0;align=left;verticalAlign=top;fillColor=none;spacingLeft=34;spacingRight=4;overflow=hidden;rotatable=0;points=[[0,0.5],[1,0.5]];portConstraint=eastwest;dropTarget=0;fontSize=12;" vertex="1" parent="226">
                    <mxGeometry y="56" width="160" height="26" as="geometry"/>
                </mxCell>
                <mxCell id="333" value="" style="shape=partialRectangle;top=0;left=0;bottom=0;fillColor=none;align=left;verticalAlign=top;spacingLeft=4;spacingRight=4;overflow=hidden;rotatable=0;points=[];portConstraint=eastwest;part=1;fontSize=12;" vertex="1" connectable="0" parent="332">
                    <mxGeometry width="30" height="26" as="geometry"/>
                </mxCell>
                <mxCell id="229" value="language" style="shape=partialRectangle;top=0;left=0;right=0;bottom=0;align=left;verticalAlign=top;fillColor=none;spacingLeft=34;spacingRight=4;overflow=hidden;rotatable=0;points=[[0,0.5],[1,0.5]];portConstraint=eastwest;dropTarget=0;fontSize=12;" parent="226" vertex="1">
                    <mxGeometry y="82" width="160" height="26" as="geometry"/>
                </mxCell>
                <mxCell id="230" value="" style="shape=partialRectangle;top=0;left=0;bottom=0;fillColor=none;align=left;verticalAlign=top;spacingLeft=4;spacingRight=4;overflow=hidden;rotatable=0;points=[];portConstraint=eastwest;part=1;fontSize=12;" parent="229" vertex="1" connectable="0">
                    <mxGeometry width="30" height="26" as="geometry"/>
                </mxCell>
                <mxCell id="231" value="user_id" style="shape=partialRectangle;top=0;left=0;right=0;bottom=0;align=left;verticalAlign=top;fillColor=none;spacingLeft=34;spacingRight=4;overflow=hidden;rotatable=0;points=[[0,0.5],[1,0.5]];portConstraint=eastwest;dropTarget=0;fontSize=12;" parent="226" vertex="1">
                    <mxGeometry y="108" width="160" height="26" as="geometry"/>
                </mxCell>
                <mxCell id="232" value="FK" style="shape=partialRectangle;top=0;left=0;bottom=0;fillColor=none;align=left;verticalAlign=top;spacingLeft=4;spacingRight=4;overflow=hidden;rotatable=0;points=[];portConstraint=eastwest;part=1;fontSize=12;" parent="231" vertex="1" connectable="0">
                    <mxGeometry width="30" height="26" as="geometry"/>
                </mxCell>
                <mxCell id="270" value="" style="edgeStyle=entityRelationEdgeStyle;fontSize=12;html=1;endArrow=ERmandOne;startArrow=ERmandOne;entryX=0;entryY=0.5;entryDx=0;entryDy=0;exitX=1.002;exitY=0.094;exitDx=0;exitDy=0;exitPerimeter=0;" parent="1" source="4" target="244" edge="1">
                    <mxGeometry width="100" height="100" relative="1" as="geometry">
                        <mxPoint x="20" y="20" as="sourcePoint"/>
                        <mxPoint x="120" y="-80" as="targetPoint"/>
                    </mxGeometry>
                </mxCell>
                <mxCell id="271" value="" style="edgeStyle=entityRelationEdgeStyle;fontSize=12;html=1;endArrow=ERmandOne;startArrow=ERmandOne;entryX=0;entryY=0.5;entryDx=0;entryDy=0;" parent="1" source="4" target="231" edge="1">
                    <mxGeometry width="100" height="100" relative="1" as="geometry">
                        <mxPoint x="320" y="121" as="sourcePoint"/>
                        <mxPoint x="130" y="-139" as="targetPoint"/>
                    </mxGeometry>
                </mxCell>
                <mxCell id="193" value="Summary" style="swimlane;fontStyle=0;childLayout=stackLayout;horizontal=1;startSize=26;horizontalStack=0;resizeParent=1;resizeParentMax=0;resizeLast=0;collapsible=1;marginBottom=0;align=center;fontSize=14;" parent="1" vertex="1">
                    <mxGeometry x="760" y="-210" width="160" height="144" as="geometry"/>
                </mxCell>
                <mxCell id="194" value="id" style="shape=partialRectangle;top=0;left=0;right=0;bottom=1;align=left;verticalAlign=middle;fillColor=none;spacingLeft=34;spacingRight=4;overflow=hidden;rotatable=0;points=[[0,0.5],[1,0.5]];portConstraint=eastwest;dropTarget=0;fontStyle=5;fontSize=12;" parent="193" vertex="1">
                    <mxGeometry y="26" width="160" height="30" as="geometry"/>
                </mxCell>
                <mxCell id="195" value="PK" style="shape=partialRectangle;top=0;left=0;bottom=0;fillColor=none;align=left;verticalAlign=middle;spacingLeft=4;spacingRight=4;overflow=hidden;rotatable=0;points=[];portConstraint=eastwest;part=1;fontSize=12;" parent="194" vertex="1" connectable="0">
                    <mxGeometry width="30" height="30" as="geometry"/>
                </mxCell>
                <mxCell id="196" value="request_id" style="shape=partialRectangle;top=0;left=0;right=0;bottom=0;align=left;verticalAlign=top;fillColor=none;spacingLeft=34;spacingRight=4;overflow=hidden;rotatable=0;points=[[0,0.5],[1,0.5]];portConstraint=eastwest;dropTarget=0;fontSize=12;" parent="193" vertex="1">
                    <mxGeometry y="56" width="160" height="26" as="geometry"/>
                </mxCell>
                <mxCell id="197" value="" style="shape=partialRectangle;top=0;left=0;bottom=0;fillColor=none;align=left;verticalAlign=top;spacingLeft=4;spacingRight=4;overflow=hidden;rotatable=0;points=[];portConstraint=eastwest;part=1;fontSize=12;" parent="196" vertex="1" connectable="0">
                    <mxGeometry width="30" height="26" as="geometry"/>
                </mxCell>
                <mxCell id="198" value="" style="shape=partialRectangle;top=0;left=0;right=0;bottom=0;align=left;verticalAlign=top;fillColor=none;spacingLeft=34;spacingRight=4;overflow=hidden;rotatable=0;points=[[0,0.5],[1,0.5]];portConstraint=eastwest;dropTarget=0;fontSize=12;" parent="193" vertex="1">
                    <mxGeometry y="82" width="160" height="26" as="geometry"/>
                </mxCell>
                <mxCell id="199" value="" style="shape=partialRectangle;top=0;left=0;bottom=0;fillColor=none;align=left;verticalAlign=top;spacingLeft=4;spacingRight=4;overflow=hidden;rotatable=0;points=[];portConstraint=eastwest;part=1;fontSize=12;" parent="198" vertex="1" connectable="0">
                    <mxGeometry width="30" height="26" as="geometry"/>
                </mxCell>
                <mxCell id="200" value="row 3" style="shape=partialRectangle;top=0;left=0;right=0;bottom=0;align=left;verticalAlign=top;fillColor=none;spacingLeft=34;spacingRight=4;overflow=hidden;rotatable=0;points=[[0,0.5],[1,0.5]];portConstraint=eastwest;dropTarget=0;fontSize=12;" parent="193" vertex="1">
                    <mxGeometry y="108" width="160" height="26" as="geometry"/>
                </mxCell>
                <mxCell id="201" value="" style="shape=partialRectangle;top=0;left=0;bottom=0;fillColor=none;align=left;verticalAlign=top;spacingLeft=4;spacingRight=4;overflow=hidden;rotatable=0;points=[];portConstraint=eastwest;part=1;fontSize=12;" parent="200" vertex="1" connectable="0">
                    <mxGeometry width="30" height="26" as="geometry"/>
                </mxCell>
                <mxCell id="202" value="" style="shape=partialRectangle;top=0;left=0;right=0;bottom=0;align=left;verticalAlign=top;fillColor=none;spacingLeft=34;spacingRight=4;overflow=hidden;rotatable=0;points=[[0,0.5],[1,0.5]];portConstraint=eastwest;dropTarget=0;fontSize=12;" parent="193" vertex="1">
                    <mxGeometry y="134" width="160" height="10" as="geometry"/>
                </mxCell>
                <mxCell id="203" value="" style="shape=partialRectangle;top=0;left=0;bottom=0;fillColor=none;align=left;verticalAlign=top;spacingLeft=4;spacingRight=4;overflow=hidden;rotatable=0;points=[];portConstraint=eastwest;part=1;fontSize=12;" parent="202" vertex="1" connectable="0">
                    <mxGeometry width="30" height="10" as="geometry"/>
                </mxCell>
                <mxCell id="276" value="" style="edgeStyle=entityRelationEdgeStyle;fontSize=12;html=1;endArrow=ERoneToMany;startArrow=ERmandOne;exitX=1;exitY=0.5;exitDx=0;exitDy=0;entryX=0;entryY=0.5;entryDx=0;entryDy=0;" parent="1" source="10" target="115" edge="1">
                    <mxGeometry width="100" height="100" relative="1" as="geometry">
                        <mxPoint x="340" y="310" as="sourcePoint"/>
                        <mxPoint x="440" y="210" as="targetPoint"/>
                    </mxGeometry>
                </mxCell>
                <mxCell id="204" value="RequestSettings" style="swimlane;fontStyle=0;childLayout=stackLayout;horizontal=1;startSize=26;horizontalStack=0;resizeParent=1;resizeParentMax=0;resizeLast=0;collapsible=1;marginBottom=0;align=center;fontSize=14;" parent="1" vertex="1">
                    <mxGeometry x="1020" y="-200" width="160" height="118" as="geometry"/>
                </mxCell>
                <mxCell id="205" value="id" style="shape=partialRectangle;top=0;left=0;right=0;bottom=1;align=left;verticalAlign=middle;fillColor=none;spacingLeft=34;spacingRight=4;overflow=hidden;rotatable=0;points=[[0,0.5],[1,0.5]];portConstraint=eastwest;dropTarget=0;fontStyle=5;fontSize=12;" parent="204" vertex="1">
                    <mxGeometry y="26" width="160" height="30" as="geometry"/>
                </mxCell>
                <mxCell id="206" value="PK" style="shape=partialRectangle;top=0;left=0;bottom=0;fillColor=none;align=left;verticalAlign=middle;spacingLeft=4;spacingRight=4;overflow=hidden;rotatable=0;points=[];portConstraint=eastwest;part=1;fontSize=12;" parent="205" vertex="1" connectable="0">
                    <mxGeometry width="30" height="30" as="geometry"/>
                </mxCell>
                <mxCell id="207" value="request_id" style="shape=partialRectangle;top=0;left=0;right=0;bottom=0;align=left;verticalAlign=top;fillColor=none;spacingLeft=34;spacingRight=4;overflow=hidden;rotatable=0;points=[[0,0.5],[1,0.5]];portConstraint=eastwest;dropTarget=0;fontSize=12;" parent="204" vertex="1">
                    <mxGeometry y="56" width="160" height="26" as="geometry"/>
                </mxCell>
                <mxCell id="208" value="FK" style="shape=partialRectangle;top=0;left=0;bottom=0;fillColor=none;align=left;verticalAlign=top;spacingLeft=4;spacingRight=4;overflow=hidden;rotatable=0;points=[];portConstraint=eastwest;part=1;fontSize=12;" parent="207" vertex="1" connectable="0">
                    <mxGeometry width="30" height="26" as="geometry"/>
                </mxCell>
                <mxCell id="211" value="row 3" style="shape=partialRectangle;top=0;left=0;right=0;bottom=0;align=left;verticalAlign=top;fillColor=none;spacingLeft=34;spacingRight=4;overflow=hidden;rotatable=0;points=[[0,0.5],[1,0.5]];portConstraint=eastwest;dropTarget=0;fontSize=12;" parent="204" vertex="1">
                    <mxGeometry y="82" width="160" height="26" as="geometry"/>
                </mxCell>
                <mxCell id="212" value="" style="shape=partialRectangle;top=0;left=0;bottom=0;fillColor=none;align=left;verticalAlign=top;spacingLeft=4;spacingRight=4;overflow=hidden;rotatable=0;points=[];portConstraint=eastwest;part=1;fontSize=12;" parent="211" vertex="1" connectable="0">
                    <mxGeometry width="30" height="26" as="geometry"/>
                </mxCell>
                <mxCell id="213" value="" style="shape=partialRectangle;top=0;left=0;right=0;bottom=0;align=left;verticalAlign=top;fillColor=none;spacingLeft=34;spacingRight=4;overflow=hidden;rotatable=0;points=[[0,0.5],[1,0.5]];portConstraint=eastwest;dropTarget=0;fontSize=12;" parent="204" vertex="1">
                    <mxGeometry y="108" width="160" height="10" as="geometry"/>
                </mxCell>
                <mxCell id="214" value="" style="shape=partialRectangle;top=0;left=0;bottom=0;fillColor=none;align=left;verticalAlign=top;spacingLeft=4;spacingRight=4;overflow=hidden;rotatable=0;points=[];portConstraint=eastwest;part=1;fontSize=12;" parent="213" vertex="1" connectable="0">
                    <mxGeometry width="30" height="10" as="geometry"/>
                </mxCell>
                <mxCell id="278" value="" style="edgeStyle=entityRelationEdgeStyle;fontSize=12;html=1;endArrow=ERoneToMany;startArrow=ERmandOne;entryX=0;entryY=0.5;entryDx=0;entryDy=0;" parent="1" source="104" target="185" edge="1">
                    <mxGeometry width="100" height="100" relative="1" as="geometry">
                        <mxPoint x="1110" y="90" as="sourcePoint"/>
                        <mxPoint x="1210" y="-10" as="targetPoint"/>
                    </mxGeometry>
                </mxCell>
                <mxCell id="279" value="" style="edgeStyle=entityRelationEdgeStyle;fontSize=12;html=1;endArrow=ERoneToMany;startArrow=ERmandOne;entryX=0;entryY=0.5;entryDx=0;entryDy=0;exitX=1;exitY=0.367;exitDx=0;exitDy=0;exitPerimeter=0;" parent="1" source="48" target="189" edge="1">
                    <mxGeometry width="100" height="100" relative="1" as="geometry">
                        <mxPoint x="830" y="550" as="sourcePoint"/>
                        <mxPoint x="1170" y="310" as="targetPoint"/>
                    </mxGeometry>
                </mxCell>
                <mxCell id="302" style="edgeStyle=elbowEdgeStyle;rounded=0;orthogonalLoop=1;jettySize=auto;html=1;exitX=0;exitY=0.5;exitDx=0;exitDy=0;endArrow=ERone;endFill=0;startArrow=ERone;startFill=0;entryX=1.007;entryY=0.243;entryDx=0;entryDy=0;entryPerimeter=0;" edge="1" parent="1" source="165" target="4">
                    <mxGeometry relative="1" as="geometry">
                        <mxPoint x="320" y="156" as="targetPoint"/>
                        <Array as="points">
                            <mxPoint x="460" y="150"/>
                            <mxPoint x="470" y="160"/>
                        </Array>
                    </mxGeometry>
                </mxCell>
                <mxCell id="314" style="edgeStyle=entityRelationEdgeStyle;rounded=0;orthogonalLoop=1;jettySize=auto;html=1;exitX=1;exitY=0.5;exitDx=0;exitDy=0;entryX=0;entryY=0.5;entryDx=0;entryDy=0;endArrow=ERzeroToMany;endFill=1;targetPerimeterSpacing=2;sourcePerimeterSpacing=2;startArrow=ERmandOne;startFill=0;" edge="1" parent="1" source="161" target="108">
                    <mxGeometry relative="1" as="geometry"/>
                </mxCell>
                <mxCell id="248" value="Feed" style="swimlane;fontStyle=0;childLayout=stackLayout;horizontal=1;startSize=26;horizontalStack=0;resizeParent=1;resizeParentMax=0;resizeLast=0;collapsible=1;marginBottom=0;align=center;fontSize=14;" parent="1" vertex="1">
                    <mxGeometry x="-450" y="-10" width="160" height="164" as="geometry"/>
                </mxCell>
                <mxCell id="249" value="id" style="shape=partialRectangle;top=0;left=0;right=0;bottom=1;align=left;verticalAlign=middle;fillColor=none;spacingLeft=34;spacingRight=4;overflow=hidden;rotatable=0;points=[[0,0.5],[1,0.5]];portConstraint=eastwest;dropTarget=0;fontStyle=5;fontSize=12;" parent="248" vertex="1">
                    <mxGeometry y="26" width="160" height="30" as="geometry"/>
                </mxCell>
                <mxCell id="250" value="PK" style="shape=partialRectangle;top=0;left=0;bottom=0;fillColor=none;align=left;verticalAlign=middle;spacingLeft=4;spacingRight=4;overflow=hidden;rotatable=0;points=[];portConstraint=eastwest;part=1;fontSize=12;" parent="249" vertex="1" connectable="0">
                    <mxGeometry width="30" height="30" as="geometry"/>
                </mxCell>
                <mxCell id="257" value="comapny_id" style="shape=partialRectangle;top=0;left=0;right=0;bottom=0;align=left;verticalAlign=top;fillColor=none;spacingLeft=34;spacingRight=4;overflow=hidden;rotatable=0;points=[[0,0.5],[1,0.5]];portConstraint=eastwest;dropTarget=0;fontSize=12;" parent="248" vertex="1">
                    <mxGeometry y="56" width="160" height="36" as="geometry"/>
                </mxCell>
                <mxCell id="258" value="FK" style="shape=partialRectangle;top=0;left=0;bottom=0;fillColor=none;align=left;verticalAlign=top;spacingLeft=4;spacingRight=4;overflow=hidden;rotatable=0;points=[];portConstraint=eastwest;part=1;fontSize=12;" parent="257" vertex="1" connectable="0">
                    <mxGeometry width="30" height="36" as="geometry"/>
                </mxCell>
                <mxCell id="373" value="text" style="shape=partialRectangle;top=0;left=0;right=0;bottom=0;align=left;verticalAlign=top;fillColor=none;spacingLeft=34;spacingRight=4;overflow=hidden;rotatable=0;points=[[0,0.5],[1,0.5]];portConstraint=eastwest;dropTarget=0;fontSize=12;" vertex="1" parent="248">
                    <mxGeometry y="92" width="160" height="36" as="geometry"/>
                </mxCell>
                <mxCell id="374" value="" style="shape=partialRectangle;top=0;left=0;bottom=0;fillColor=none;align=left;verticalAlign=top;spacingLeft=4;spacingRight=4;overflow=hidden;rotatable=0;points=[];portConstraint=eastwest;part=1;fontSize=12;" vertex="1" connectable="0" parent="373">
                    <mxGeometry width="30" height="36" as="geometry"/>
                </mxCell>
                <mxCell id="375" value="type" style="shape=partialRectangle;top=0;left=0;right=0;bottom=0;align=left;verticalAlign=top;fillColor=none;spacingLeft=34;spacingRight=4;overflow=hidden;rotatable=0;points=[[0,0.5],[1,0.5]];portConstraint=eastwest;dropTarget=0;fontSize=12;" vertex="1" parent="248">
                    <mxGeometry y="128" width="160" height="36" as="geometry"/>
                </mxCell>
                <mxCell id="376" value="" style="shape=partialRectangle;top=0;left=0;bottom=0;fillColor=none;align=left;verticalAlign=top;spacingLeft=4;spacingRight=4;overflow=hidden;rotatable=0;points=[];portConstraint=eastwest;part=1;fontSize=12;" vertex="1" connectable="0" parent="375">
                    <mxGeometry width="30" height="36" as="geometry"/>
                </mxCell>
                <mxCell id="361" style="edgeStyle=entityRelationEdgeStyle;rounded=0;jumpStyle=arc;orthogonalLoop=1;jettySize=auto;html=1;exitX=1;exitY=0.5;exitDx=0;exitDy=0;entryX=0;entryY=0.5;entryDx=0;entryDy=0;startArrow=ERzeroToMany;startFill=1;sourcePerimeterSpacing=2;endArrow=ERmandOne;endFill=0;targetPerimeterSpacing=2;" edge="1" parent="1" source="266" target="161">
                    <mxGeometry relative="1" as="geometry"/>
                </mxCell>
                <mxCell id="14" value="Company" style="swimlane;fontStyle=0;childLayout=stackLayout;horizontal=1;startSize=26;horizontalStack=0;resizeParent=1;resizeParentMax=0;resizeLast=0;collapsible=1;marginBottom=0;align=center;fontSize=14;" parent="1" vertex="1">
                    <mxGeometry x="-60" y="480" width="160" height="144" as="geometry"/>
                </mxCell>
                <mxCell id="15" value="id" style="shape=partialRectangle;top=0;left=0;right=0;bottom=1;align=left;verticalAlign=middle;fillColor=none;spacingLeft=34;spacingRight=4;overflow=hidden;rotatable=0;points=[[0,0.5],[1,0.5]];portConstraint=eastwest;dropTarget=0;fontStyle=5;fontSize=12;" parent="14" vertex="1">
                    <mxGeometry y="26" width="160" height="30" as="geometry"/>
                </mxCell>
                <mxCell id="16" value="PK" style="shape=partialRectangle;top=0;left=0;bottom=0;fillColor=none;align=left;verticalAlign=middle;spacingLeft=4;spacingRight=4;overflow=hidden;rotatable=0;points=[];portConstraint=eastwest;part=1;fontSize=12;" parent="15" vertex="1" connectable="0">
                    <mxGeometry width="30" height="30" as="geometry"/>
                </mxCell>
                <mxCell id="17" value="name" style="shape=partialRectangle;top=0;left=0;right=0;bottom=0;align=left;verticalAlign=top;fillColor=none;spacingLeft=34;spacingRight=4;overflow=hidden;rotatable=0;points=[[0,0.5],[1,0.5]];portConstraint=eastwest;dropTarget=0;fontSize=12;" parent="14" vertex="1">
                    <mxGeometry y="56" width="160" height="26" as="geometry"/>
                </mxCell>
                <mxCell id="18" value="" style="shape=partialRectangle;top=0;left=0;bottom=0;fillColor=none;align=left;verticalAlign=top;spacingLeft=4;spacingRight=4;overflow=hidden;rotatable=0;points=[];portConstraint=eastwest;part=1;fontSize=12;" parent="17" vertex="1" connectable="0">
                    <mxGeometry width="30" height="26" as="geometry"/>
                </mxCell>
                <mxCell id="19" value="address" style="shape=partialRectangle;top=0;left=0;right=0;bottom=0;align=left;verticalAlign=top;fillColor=none;spacingLeft=34;spacingRight=4;overflow=hidden;rotatable=0;points=[[0,0.5],[1,0.5]];portConstraint=eastwest;dropTarget=0;fontSize=12;" parent="14" vertex="1">
                    <mxGeometry y="82" width="160" height="26" as="geometry"/>
                </mxCell>
                <mxCell id="20" value="" style="shape=partialRectangle;top=0;left=0;bottom=0;fillColor=none;align=left;verticalAlign=top;spacingLeft=4;spacingRight=4;overflow=hidden;rotatable=0;points=[];portConstraint=eastwest;part=1;fontSize=12;" parent="19" vertex="1" connectable="0">
                    <mxGeometry width="30" height="26" as="geometry"/>
                </mxCell>
                <mxCell id="21" value="phone_number&#10;" style="shape=partialRectangle;top=0;left=0;right=0;bottom=0;align=left;verticalAlign=top;fillColor=none;spacingLeft=34;spacingRight=4;overflow=hidden;rotatable=0;points=[[0,0.5],[1,0.5]];portConstraint=eastwest;dropTarget=0;fontSize=12;" parent="14" vertex="1">
                    <mxGeometry y="108" width="160" height="26" as="geometry"/>
                </mxCell>
                <mxCell id="22" value="" style="shape=partialRectangle;top=0;left=0;bottom=0;fillColor=none;align=left;verticalAlign=top;spacingLeft=4;spacingRight=4;overflow=hidden;rotatable=0;points=[];portConstraint=eastwest;part=1;fontSize=12;" parent="21" vertex="1" connectable="0">
                    <mxGeometry width="30" height="26" as="geometry"/>
                </mxCell>
                <mxCell id="23" value="" style="shape=partialRectangle;top=0;left=0;right=0;bottom=0;align=left;verticalAlign=top;fillColor=none;spacingLeft=34;spacingRight=4;overflow=hidden;rotatable=0;points=[[0,0.5],[1,0.5]];portConstraint=eastwest;dropTarget=0;fontSize=12;" parent="14" vertex="1">
                    <mxGeometry y="134" width="160" height="10" as="geometry"/>
                </mxCell>
                <mxCell id="24" value="" style="shape=partialRectangle;top=0;left=0;bottom=0;fillColor=none;align=left;verticalAlign=top;spacingLeft=4;spacingRight=4;overflow=hidden;rotatable=0;points=[];portConstraint=eastwest;part=1;fontSize=12;" parent="23" vertex="1" connectable="0">
                    <mxGeometry width="30" height="10" as="geometry"/>
                </mxCell>
                <mxCell id="25" value="Team" style="swimlane;fontStyle=0;childLayout=stackLayout;horizontal=1;startSize=26;horizontalStack=0;resizeParent=1;resizeParentMax=0;resizeLast=0;collapsible=1;marginBottom=0;align=center;fontSize=14;" parent="1" vertex="1">
                    <mxGeometry x="-230" y="380" width="160" height="108" as="geometry"/>
                </mxCell>
                <mxCell id="26" value="id" style="shape=partialRectangle;top=0;left=0;right=0;bottom=1;align=left;verticalAlign=middle;fillColor=none;spacingLeft=34;spacingRight=4;overflow=hidden;rotatable=0;points=[[0,0.5],[1,0.5]];portConstraint=eastwest;dropTarget=0;fontStyle=5;fontSize=12;" parent="25" vertex="1">
                    <mxGeometry y="26" width="160" height="30" as="geometry"/>
                </mxCell>
                <mxCell id="27" value="PK" style="shape=partialRectangle;top=0;left=0;bottom=0;fillColor=none;align=left;verticalAlign=middle;spacingLeft=4;spacingRight=4;overflow=hidden;rotatable=0;points=[];portConstraint=eastwest;part=1;fontSize=12;" parent="26" vertex="1" connectable="0">
                    <mxGeometry width="30" height="30" as="geometry"/>
                </mxCell>
                <mxCell id="28" value="company_id" style="shape=partialRectangle;top=0;left=0;right=0;bottom=0;align=left;verticalAlign=top;fillColor=none;spacingLeft=34;spacingRight=4;overflow=hidden;rotatable=0;points=[[0,0.5],[1,0.5]];portConstraint=eastwest;dropTarget=0;fontSize=12;" parent="25" vertex="1">
                    <mxGeometry y="56" width="160" height="26" as="geometry"/>
                </mxCell>
                <mxCell id="29" value="" style="shape=partialRectangle;top=0;left=0;bottom=0;fillColor=none;align=left;verticalAlign=top;spacingLeft=4;spacingRight=4;overflow=hidden;rotatable=0;points=[];portConstraint=eastwest;part=1;fontSize=12;" parent="28" vertex="1" connectable="0">
                    <mxGeometry width="30" height="26" as="geometry"/>
                </mxCell>
                <mxCell id="30" value="team_name&#10;" style="shape=partialRectangle;top=0;left=0;right=0;bottom=0;align=left;verticalAlign=top;fillColor=none;spacingLeft=34;spacingRight=4;overflow=hidden;rotatable=0;points=[[0,0.5],[1,0.5]];portConstraint=eastwest;dropTarget=0;fontSize=12;" parent="25" vertex="1">
                    <mxGeometry y="82" width="160" height="26" as="geometry"/>
                </mxCell>
                <mxCell id="31" value="" style="shape=partialRectangle;top=0;left=0;bottom=0;fillColor=none;align=left;verticalAlign=top;spacingLeft=4;spacingRight=4;overflow=hidden;rotatable=0;points=[];portConstraint=eastwest;part=1;fontSize=12;" parent="30" vertex="1" connectable="0">
                    <mxGeometry width="30" height="26" as="geometry"/>
                </mxCell>
                <mxCell id="3" value="User" style="swimlane;fontStyle=0;childLayout=stackLayout;horizontal=1;startSize=26;horizontalStack=0;resizeParent=1;resizeParentMax=0;resizeLast=0;collapsible=1;marginBottom=0;align=center;fontSize=14;" parent="1" vertex="1">
                    <mxGeometry x="160" y="120" width="160" height="170" as="geometry"/>
                </mxCell>
                <mxCell id="4" value="id" style="shape=partialRectangle;top=0;left=0;right=0;bottom=1;align=left;verticalAlign=middle;fillColor=none;spacingLeft=34;spacingRight=4;overflow=hidden;rotatable=0;points=[[0,0.5],[1,0.5]];portConstraint=eastwest;dropTarget=0;fontStyle=5;fontSize=12;" parent="3" vertex="1">
                    <mxGeometry y="26" width="160" height="30" as="geometry"/>
                </mxCell>
                <mxCell id="5" value="PK" style="shape=partialRectangle;top=0;left=0;bottom=0;fillColor=none;align=left;verticalAlign=middle;spacingLeft=4;spacingRight=4;overflow=hidden;rotatable=0;points=[];portConstraint=eastwest;part=1;fontSize=12;" parent="4" vertex="1" connectable="0">
                    <mxGeometry width="30" height="30" as="geometry"/>
                </mxCell>
                <mxCell id="6" value="email" style="shape=partialRectangle;top=0;left=0;right=0;bottom=0;align=left;verticalAlign=top;fillColor=none;spacingLeft=34;spacingRight=4;overflow=hidden;rotatable=0;points=[[0,0.5],[1,0.5]];portConstraint=eastwest;dropTarget=0;fontSize=12;" parent="3" vertex="1">
                    <mxGeometry y="56" width="160" height="26" as="geometry"/>
                </mxCell>
                <mxCell id="7" value="" style="shape=partialRectangle;top=0;left=0;bottom=0;fillColor=none;align=left;verticalAlign=top;spacingLeft=4;spacingRight=4;overflow=hidden;rotatable=0;points=[];portConstraint=eastwest;part=1;fontSize=12;" parent="6" vertex="1" connectable="0">
                    <mxGeometry width="30" height="26" as="geometry"/>
                </mxCell>
                <mxCell id="8" value="password_hash" style="shape=partialRectangle;top=0;left=0;right=0;bottom=0;align=left;verticalAlign=top;fillColor=none;spacingLeft=34;spacingRight=4;overflow=hidden;rotatable=0;points=[[0,0.5],[1,0.5]];portConstraint=eastwest;dropTarget=0;fontSize=12;" parent="3" vertex="1">
                    <mxGeometry y="82" width="160" height="26" as="geometry"/>
                </mxCell>
                <mxCell id="9" value="" style="shape=partialRectangle;top=0;left=0;bottom=0;fillColor=none;align=left;verticalAlign=top;spacingLeft=4;spacingRight=4;overflow=hidden;rotatable=0;points=[];portConstraint=eastwest;part=1;fontSize=12;" parent="8" vertex="1" connectable="0">
                    <mxGeometry width="30" height="26" as="geometry"/>
                </mxCell>
                <mxCell id="10" value="role_id" style="shape=partialRectangle;top=0;left=0;right=0;bottom=0;align=left;verticalAlign=top;fillColor=none;spacingLeft=34;spacingRight=4;overflow=hidden;rotatable=0;points=[[0,0.5],[1,0.5]];portConstraint=eastwest;dropTarget=0;fontSize=12;" parent="3" vertex="1">
                    <mxGeometry y="108" width="160" height="26" as="geometry"/>
                </mxCell>
                <mxCell id="11" value="FK" style="shape=partialRectangle;top=0;left=0;bottom=0;fillColor=none;align=left;verticalAlign=top;spacingLeft=4;spacingRight=4;overflow=hidden;rotatable=0;points=[];portConstraint=eastwest;part=1;fontSize=12;" parent="10" vertex="1" connectable="0">
                    <mxGeometry width="30" height="26" as="geometry"/>
                </mxCell>
                <mxCell id="12" value="comapny_id" style="shape=partialRectangle;top=0;left=0;right=0;bottom=0;align=left;verticalAlign=top;fillColor=none;spacingLeft=34;spacingRight=4;overflow=hidden;rotatable=0;points=[[0,0.5],[1,0.5]];portConstraint=eastwest;dropTarget=0;fontSize=12;" parent="3" vertex="1">
                    <mxGeometry y="134" width="160" height="36" as="geometry"/>
                </mxCell>
                <mxCell id="13" value="FK" style="shape=partialRectangle;top=0;left=0;bottom=0;fillColor=none;align=left;verticalAlign=top;spacingLeft=4;spacingRight=4;overflow=hidden;rotatable=0;points=[];portConstraint=eastwest;part=1;fontSize=12;" parent="12" vertex="1" connectable="0">
                    <mxGeometry width="30" height="36" as="geometry"/>
                </mxCell>
                <mxCell id="36" value="Questionier" style="swimlane;fontStyle=0;childLayout=stackLayout;horizontal=1;startSize=26;horizontalStack=0;resizeParent=1;resizeParentMax=0;resizeLast=0;collapsible=1;marginBottom=0;align=center;fontSize=14;" parent="1" vertex="1">
                    <mxGeometry x="310" y="540" width="160" height="118" as="geometry"/>
                </mxCell>
                <mxCell id="37" value="id" style="shape=partialRectangle;top=0;left=0;right=0;bottom=1;align=left;verticalAlign=middle;fillColor=none;spacingLeft=34;spacingRight=4;overflow=hidden;rotatable=0;points=[[0,0.5],[1,0.5]];portConstraint=eastwest;dropTarget=0;fontStyle=5;fontSize=12;" parent="36" vertex="1">
                    <mxGeometry y="26" width="160" height="30" as="geometry"/>
                </mxCell>
                <mxCell id="38" value="PK" style="shape=partialRectangle;top=0;left=0;bottom=0;fillColor=none;align=left;verticalAlign=middle;spacingLeft=4;spacingRight=4;overflow=hidden;rotatable=0;points=[];portConstraint=eastwest;part=1;fontSize=12;" parent="37" vertex="1" connectable="0">
                    <mxGeometry width="30" height="30" as="geometry"/>
                </mxCell>
                <mxCell id="39" value="comapny_id" style="shape=partialRectangle;top=0;left=0;right=0;bottom=0;align=left;verticalAlign=top;fillColor=none;spacingLeft=34;spacingRight=4;overflow=hidden;rotatable=0;points=[[0,0.5],[1,0.5]];portConstraint=eastwest;dropTarget=0;fontSize=12;" parent="36" vertex="1">
                    <mxGeometry y="56" width="160" height="26" as="geometry"/>
                </mxCell>
                <mxCell id="40" value="FK" style="shape=partialRectangle;top=0;left=0;bottom=0;fillColor=none;align=left;verticalAlign=top;spacingLeft=4;spacingRight=4;overflow=hidden;rotatable=0;points=[];portConstraint=eastwest;part=1;fontSize=12;" parent="39" vertex="1" connectable="0">
                    <mxGeometry width="30" height="26" as="geometry"/>
                </mxCell>
                <mxCell id="41" value="title" style="shape=partialRectangle;top=0;left=0;right=0;bottom=0;align=left;verticalAlign=top;fillColor=none;spacingLeft=34;spacingRight=4;overflow=hidden;rotatable=0;points=[[0,0.5],[1,0.5]];portConstraint=eastwest;dropTarget=0;fontSize=12;" parent="36" vertex="1">
                    <mxGeometry y="82" width="160" height="26" as="geometry"/>
                </mxCell>
                <mxCell id="42" value="" style="shape=partialRectangle;top=0;left=0;bottom=0;fillColor=none;align=left;verticalAlign=top;spacingLeft=4;spacingRight=4;overflow=hidden;rotatable=0;points=[];portConstraint=eastwest;part=1;fontSize=12;" parent="41" vertex="1" connectable="0">
                    <mxGeometry width="30" height="26" as="geometry"/>
                </mxCell>
                <mxCell id="45" value="" style="shape=partialRectangle;top=0;left=0;right=0;bottom=0;align=left;verticalAlign=top;fillColor=none;spacingLeft=34;spacingRight=4;overflow=hidden;rotatable=0;points=[[0,0.5],[1,0.5]];portConstraint=eastwest;dropTarget=0;fontSize=12;" parent="36" vertex="1">
                    <mxGeometry y="108" width="160" height="10" as="geometry"/>
                </mxCell>
                <mxCell id="46" value="" style="shape=partialRectangle;top=0;left=0;bottom=0;fillColor=none;align=left;verticalAlign=top;spacingLeft=4;spacingRight=4;overflow=hidden;rotatable=0;points=[];portConstraint=eastwest;part=1;fontSize=12;" parent="45" vertex="1" connectable="0">
                    <mxGeometry width="30" height="10" as="geometry"/>
                </mxCell>
                <mxCell id="114" value="Role" style="swimlane;fontStyle=0;childLayout=stackLayout;horizontal=1;startSize=26;horizontalStack=0;resizeParent=1;resizeParentMax=0;resizeLast=0;collapsible=1;marginBottom=0;align=center;fontSize=14;" parent="1" vertex="1">
                    <mxGeometry x="380" y="330" width="160" height="118" as="geometry"/>
                </mxCell>
                <mxCell id="115" value="id" style="shape=partialRectangle;top=0;left=0;right=0;bottom=1;align=left;verticalAlign=middle;fillColor=none;spacingLeft=34;spacingRight=4;overflow=hidden;rotatable=0;points=[[0,0.5],[1,0.5]];portConstraint=eastwest;dropTarget=0;fontStyle=5;fontSize=12;" parent="114" vertex="1">
                    <mxGeometry y="26" width="160" height="30" as="geometry"/>
                </mxCell>
                <mxCell id="116" value="PK" style="shape=partialRectangle;top=0;left=0;bottom=0;fillColor=none;align=left;verticalAlign=middle;spacingLeft=4;spacingRight=4;overflow=hidden;rotatable=0;points=[];portConstraint=eastwest;part=1;fontSize=12;" parent="115" vertex="1" connectable="0">
                    <mxGeometry width="30" height="30" as="geometry"/>
                </mxCell>
                <mxCell id="121" value="role" style="shape=partialRectangle;top=0;left=0;right=0;bottom=0;align=left;verticalAlign=top;fillColor=none;spacingLeft=34;spacingRight=4;overflow=hidden;rotatable=0;points=[[0,0.5],[1,0.5]];portConstraint=eastwest;dropTarget=0;fontSize=12;" parent="114" vertex="1">
                    <mxGeometry y="56" width="160" height="26" as="geometry"/>
                </mxCell>
                <mxCell id="122" value="" style="shape=partialRectangle;top=0;left=0;bottom=0;fillColor=none;align=left;verticalAlign=top;spacingLeft=4;spacingRight=4;overflow=hidden;rotatable=0;points=[];portConstraint=eastwest;part=1;fontSize=12;" parent="121" vertex="1" connectable="0">
                    <mxGeometry width="30" height="26" as="geometry"/>
                </mxCell>
                <mxCell id="123" value="comapny_id" style="shape=partialRectangle;top=0;left=0;right=0;bottom=0;align=left;verticalAlign=top;fillColor=none;spacingLeft=34;spacingRight=4;overflow=hidden;rotatable=0;points=[[0,0.5],[1,0.5]];portConstraint=eastwest;dropTarget=0;fontSize=12;" parent="114" vertex="1">
                    <mxGeometry y="82" width="160" height="36" as="geometry"/>
                </mxCell>
                <mxCell id="124" value="" style="shape=partialRectangle;top=0;left=0;bottom=0;fillColor=none;align=left;verticalAlign=top;spacingLeft=4;spacingRight=4;overflow=hidden;rotatable=0;points=[];portConstraint=eastwest;part=1;fontSize=12;" parent="123" vertex="1" connectable="0">
                    <mxGeometry width="30" height="36" as="geometry"/>
                </mxCell>
                <mxCell id="401" style="edgeStyle=entityRelationEdgeStyle;rounded=0;jumpStyle=arc;orthogonalLoop=1;jettySize=auto;html=1;exitX=1;exitY=0.5;exitDx=0;exitDy=0;entryX=0;entryY=0.5;entryDx=0;entryDy=0;startArrow=ERzeroToMany;startFill=1;sourcePerimeterSpacing=2;endArrow=ERmandOne;endFill=0;targetPerimeterSpacing=2;" edge="1" parent="1" source="130" target="52">
                    <mxGeometry relative="1" as="geometry"/>
                </mxCell>
                <mxCell id="137" value="Category" style="swimlane;fontStyle=0;childLayout=stackLayout;horizontal=1;startSize=26;horizontalStack=0;resizeParent=1;resizeParentMax=0;resizeLast=0;collapsible=1;marginBottom=0;align=center;fontSize=14;" parent="1" vertex="1">
                    <mxGeometry x="1020" y="650" width="160" height="92" as="geometry"/>
                </mxCell>
                <mxCell id="138" value="id" style="shape=partialRectangle;top=0;left=0;right=0;bottom=1;align=left;verticalAlign=middle;fillColor=none;spacingLeft=34;spacingRight=4;overflow=hidden;rotatable=0;points=[[0,0.5],[1,0.5]];portConstraint=eastwest;dropTarget=0;fontStyle=5;fontSize=12;" parent="137" vertex="1">
                    <mxGeometry y="26" width="160" height="30" as="geometry"/>
                </mxCell>
                <mxCell id="139" value="PK" style="shape=partialRectangle;top=0;left=0;bottom=0;fillColor=none;align=left;verticalAlign=middle;spacingLeft=4;spacingRight=4;overflow=hidden;rotatable=0;points=[];portConstraint=eastwest;part=1;fontSize=12;" parent="138" vertex="1" connectable="0">
                    <mxGeometry width="30" height="30" as="geometry"/>
                </mxCell>
                <mxCell id="142" value="category" style="shape=partialRectangle;top=0;left=0;right=0;bottom=0;align=left;verticalAlign=top;fillColor=none;spacingLeft=34;spacingRight=4;overflow=hidden;rotatable=0;points=[[0,0.5],[1,0.5]];portConstraint=eastwest;dropTarget=0;fontSize=12;" parent="137" vertex="1">
                    <mxGeometry y="56" width="160" height="26" as="geometry"/>
                </mxCell>
                <mxCell id="143" value="" style="shape=partialRectangle;top=0;left=0;bottom=0;fillColor=none;align=left;verticalAlign=top;spacingLeft=4;spacingRight=4;overflow=hidden;rotatable=0;points=[];portConstraint=eastwest;part=1;fontSize=12;" parent="142" vertex="1" connectable="0">
                    <mxGeometry width="30" height="26" as="geometry"/>
                </mxCell>
                <mxCell id="146" value="" style="shape=partialRectangle;top=0;left=0;right=0;bottom=0;align=left;verticalAlign=top;fillColor=none;spacingLeft=34;spacingRight=4;overflow=hidden;rotatable=0;points=[[0,0.5],[1,0.5]];portConstraint=eastwest;dropTarget=0;fontSize=12;" parent="137" vertex="1">
                    <mxGeometry y="82" width="160" height="10" as="geometry"/>
                </mxCell>
                <mxCell id="147" value="" style="shape=partialRectangle;top=0;left=0;bottom=0;fillColor=none;align=left;verticalAlign=top;spacingLeft=4;spacingRight=4;overflow=hidden;rotatable=0;points=[];portConstraint=eastwest;part=1;fontSize=12;" parent="146" vertex="1" connectable="0">
                    <mxGeometry width="30" height="10" as="geometry"/>
                </mxCell>
                <mxCell id="125" value="AnswerOption" style="swimlane;fontStyle=0;childLayout=stackLayout;horizontal=1;startSize=26;horizontalStack=0;resizeParent=1;resizeParentMax=0;resizeLast=0;collapsible=1;marginBottom=0;align=center;fontSize=14;" parent="1" vertex="1">
                    <mxGeometry x="560" y="430" width="160" height="118" as="geometry"/>
                </mxCell>
                <mxCell id="126" value="id" style="shape=partialRectangle;top=0;left=0;right=0;bottom=1;align=left;verticalAlign=middle;fillColor=none;spacingLeft=34;spacingRight=4;overflow=hidden;rotatable=0;points=[[0,0.5],[1,0.5]];portConstraint=eastwest;dropTarget=0;fontStyle=5;fontSize=12;" parent="125" vertex="1">
                    <mxGeometry y="26" width="160" height="30" as="geometry"/>
                </mxCell>
                <mxCell id="127" value="PK" style="shape=partialRectangle;top=0;left=0;bottom=0;fillColor=none;align=left;verticalAlign=middle;spacingLeft=4;spacingRight=4;overflow=hidden;rotatable=0;points=[];portConstraint=eastwest;part=1;fontSize=12;" parent="126" vertex="1" connectable="0">
                    <mxGeometry width="30" height="30" as="geometry"/>
                </mxCell>
                <mxCell id="128" value="value" style="shape=partialRectangle;top=0;left=0;right=0;bottom=0;align=left;verticalAlign=top;fillColor=none;spacingLeft=34;spacingRight=4;overflow=hidden;rotatable=0;points=[[0,0.5],[1,0.5]];portConstraint=eastwest;dropTarget=0;fontSize=12;" parent="125" vertex="1">
                    <mxGeometry y="56" width="160" height="26" as="geometry"/>
                </mxCell>
                <mxCell id="129" value="" style="shape=partialRectangle;top=0;left=0;bottom=0;fillColor=none;align=left;verticalAlign=top;spacingLeft=4;spacingRight=4;overflow=hidden;rotatable=0;points=[];portConstraint=eastwest;part=1;fontSize=12;" parent="128" vertex="1" connectable="0">
                    <mxGeometry width="30" height="26" as="geometry"/>
                </mxCell>
                <mxCell id="130" value="question_id" style="shape=partialRectangle;top=0;left=0;right=0;bottom=0;align=left;verticalAlign=top;fillColor=none;spacingLeft=34;spacingRight=4;overflow=hidden;rotatable=0;points=[[0,0.5],[1,0.5]];portConstraint=eastwest;dropTarget=0;fontSize=12;" parent="125" vertex="1">
                    <mxGeometry y="82" width="160" height="26" as="geometry"/>
                </mxCell>
                <mxCell id="131" value="FK" style="shape=partialRectangle;top=0;left=0;bottom=0;fillColor=none;align=left;verticalAlign=top;spacingLeft=4;spacingRight=4;overflow=hidden;rotatable=0;points=[];portConstraint=eastwest;part=1;fontSize=12;" parent="130" vertex="1" connectable="0">
                    <mxGeometry width="30" height="26" as="geometry"/>
                </mxCell>
                <mxCell id="134" value="" style="shape=partialRectangle;top=0;left=0;right=0;bottom=0;align=left;verticalAlign=top;fillColor=none;spacingLeft=34;spacingRight=4;overflow=hidden;rotatable=0;points=[[0,0.5],[1,0.5]];portConstraint=eastwest;dropTarget=0;fontSize=12;" parent="125" vertex="1">
                    <mxGeometry y="108" width="160" height="10" as="geometry"/>
                </mxCell>
                <mxCell id="135" value="" style="shape=partialRectangle;top=0;left=0;bottom=0;fillColor=none;align=left;verticalAlign=top;spacingLeft=4;spacingRight=4;overflow=hidden;rotatable=0;points=[];portConstraint=eastwest;part=1;fontSize=12;" parent="134" vertex="1" connectable="0">
                    <mxGeometry width="30" height="10" as="geometry"/>
                </mxCell>
                <mxCell id="47" value="Question" style="swimlane;fontStyle=0;childLayout=stackLayout;horizontal=1;startSize=26;horizontalStack=0;resizeParent=1;resizeParentMax=0;resizeLast=0;collapsible=1;marginBottom=0;align=center;fontSize=14;" parent="1" vertex="1">
                    <mxGeometry x="800" y="460" width="160" height="134" as="geometry"/>
                </mxCell>
                <mxCell id="48" value="id" style="shape=partialRectangle;top=0;left=0;right=0;bottom=1;align=left;verticalAlign=middle;fillColor=none;spacingLeft=34;spacingRight=4;overflow=hidden;rotatable=0;points=[[0,0.5],[1,0.5]];portConstraint=eastwest;dropTarget=0;fontStyle=5;fontSize=12;" parent="47" vertex="1">
                    <mxGeometry y="26" width="160" height="30" as="geometry"/>
                </mxCell>
                <mxCell id="49" value="PK" style="shape=partialRectangle;top=0;left=0;bottom=0;fillColor=none;align=left;verticalAlign=middle;spacingLeft=4;spacingRight=4;overflow=hidden;rotatable=0;points=[];portConstraint=eastwest;part=1;fontSize=12;" parent="48" vertex="1" connectable="0">
                    <mxGeometry width="30" height="30" as="geometry"/>
                </mxCell>
                <mxCell id="52" value="category_id" style="shape=partialRectangle;top=0;left=0;right=0;bottom=0;align=left;verticalAlign=top;fillColor=none;spacingLeft=34;spacingRight=4;overflow=hidden;rotatable=0;points=[[0,0.5],[1,0.5]];portConstraint=eastwest;dropTarget=0;fontSize=12;" parent="47" vertex="1">
                    <mxGeometry y="56" width="160" height="26" as="geometry"/>
                </mxCell>
                <mxCell id="53" value="FK" style="shape=partialRectangle;top=0;left=0;bottom=0;fillColor=none;align=left;verticalAlign=top;spacingLeft=4;spacingRight=4;overflow=hidden;rotatable=0;points=[];portConstraint=eastwest;part=1;fontSize=12;" parent="52" vertex="1" connectable="0">
                    <mxGeometry width="30" height="26" as="geometry"/>
                </mxCell>
                <mxCell id="377" value="text&#10;" style="shape=partialRectangle;top=0;left=0;right=0;bottom=0;align=left;verticalAlign=top;fillColor=none;spacingLeft=34;spacingRight=4;overflow=hidden;rotatable=0;points=[[0,0.5],[1,0.5]];portConstraint=eastwest;dropTarget=0;fontSize=12;" vertex="1" parent="47">
                    <mxGeometry y="82" width="160" height="26" as="geometry"/>
                </mxCell>
                <mxCell id="378" value="" style="shape=partialRectangle;top=0;left=0;bottom=0;fillColor=none;align=left;verticalAlign=top;spacingLeft=4;spacingRight=4;overflow=hidden;rotatable=0;points=[];portConstraint=eastwest;part=1;fontSize=12;" vertex="1" connectable="0" parent="377">
                    <mxGeometry width="30" height="26" as="geometry"/>
                </mxCell>
                <mxCell id="320" value="questionier_id" style="shape=partialRectangle;top=0;left=0;right=0;bottom=0;align=left;verticalAlign=top;fillColor=none;spacingLeft=34;spacingRight=4;overflow=hidden;rotatable=0;points=[[0,0.5],[1,0.5]];portConstraint=eastwest;dropTarget=0;fontSize=12;" vertex="1" parent="47">
                    <mxGeometry y="108" width="160" height="26" as="geometry"/>
                </mxCell>
                <mxCell id="321" value="FK" style="shape=partialRectangle;top=0;left=0;bottom=0;fillColor=none;align=left;verticalAlign=top;spacingLeft=4;spacingRight=4;overflow=hidden;rotatable=0;points=[];portConstraint=eastwest;part=1;fontSize=12;" vertex="1" connectable="0" parent="320">
                    <mxGeometry width="30" height="26" as="geometry"/>
                </mxCell>
                <mxCell id="182" value="ResponseAnswers" style="swimlane;fontStyle=0;childLayout=stackLayout;horizontal=1;startSize=26;horizontalStack=0;resizeParent=1;resizeParentMax=0;resizeLast=0;collapsible=1;marginBottom=0;align=center;fontSize=14;" parent="1" vertex="1">
                    <mxGeometry x="1040" y="400" width="160" height="140" as="geometry"/>
                </mxCell>
                <mxCell id="183" value="id" style="shape=partialRectangle;top=0;left=0;right=0;bottom=1;align=left;verticalAlign=middle;fillColor=none;spacingLeft=34;spacingRight=4;overflow=hidden;rotatable=0;points=[[0,0.5],[1,0.5]];portConstraint=eastwest;dropTarget=0;fontStyle=5;fontSize=12;" parent="182" vertex="1">
                    <mxGeometry y="26" width="160" height="30" as="geometry"/>
                </mxCell>
                <mxCell id="184" value="PK" style="shape=partialRectangle;top=0;left=0;bottom=0;fillColor=none;align=left;verticalAlign=middle;spacingLeft=4;spacingRight=4;overflow=hidden;rotatable=0;points=[];portConstraint=eastwest;part=1;fontSize=12;" parent="183" vertex="1" connectable="0">
                    <mxGeometry width="30" height="30" as="geometry"/>
                </mxCell>
                <mxCell id="185" value="response_id" style="shape=partialRectangle;top=0;left=0;right=0;bottom=0;align=left;verticalAlign=top;fillColor=none;spacingLeft=34;spacingRight=4;overflow=hidden;rotatable=0;points=[[0,0.5],[1,0.5]];portConstraint=eastwest;dropTarget=0;fontSize=12;" parent="182" vertex="1">
                    <mxGeometry y="56" width="160" height="26" as="geometry"/>
                </mxCell>
                <mxCell id="186" value="FK" style="shape=partialRectangle;top=0;left=0;bottom=0;fillColor=none;align=left;verticalAlign=top;spacingLeft=4;spacingRight=4;overflow=hidden;rotatable=0;points=[];portConstraint=eastwest;part=1;fontSize=12;" parent="185" vertex="1" connectable="0">
                    <mxGeometry width="30" height="26" as="geometry"/>
                </mxCell>
                <mxCell id="189" value="question_id" style="shape=partialRectangle;top=0;left=0;right=0;bottom=0;align=left;verticalAlign=top;fillColor=none;spacingLeft=34;spacingRight=4;overflow=hidden;rotatable=0;points=[[0,0.5],[1,0.5]];portConstraint=eastwest;dropTarget=0;fontSize=12;" parent="182" vertex="1">
                    <mxGeometry y="82" width="160" height="26" as="geometry"/>
                </mxCell>
                <mxCell id="190" value="FK" style="shape=partialRectangle;top=0;left=0;bottom=0;fillColor=none;align=left;verticalAlign=top;spacingLeft=4;spacingRight=4;overflow=hidden;rotatable=0;points=[];portConstraint=eastwest;part=1;fontSize=12;" parent="189" vertex="1" connectable="0">
                    <mxGeometry width="30" height="26" as="geometry"/>
                </mxCell>
                <mxCell id="191" value="text" style="shape=partialRectangle;top=0;left=0;right=0;bottom=0;align=left;verticalAlign=top;fillColor=none;spacingLeft=34;spacingRight=4;overflow=hidden;rotatable=0;points=[[0,0.5],[1,0.5]];portConstraint=eastwest;dropTarget=0;fontSize=12;" parent="182" vertex="1">
                    <mxGeometry y="108" width="160" height="32" as="geometry"/>
                </mxCell>
                <mxCell id="192" value="" style="shape=partialRectangle;top=0;left=0;bottom=0;fillColor=none;align=left;verticalAlign=top;spacingLeft=4;spacingRight=4;overflow=hidden;rotatable=0;points=[];portConstraint=eastwest;part=1;fontSize=12;" parent="191" vertex="1" connectable="0">
                    <mxGeometry width="30" height="32" as="geometry"/>
                </mxCell>
                <mxCell id="103" value="Response" style="swimlane;fontStyle=0;childLayout=stackLayout;horizontal=1;startSize=26;horizontalStack=0;resizeParent=1;resizeParentMax=0;resizeLast=0;collapsible=1;marginBottom=0;align=center;fontSize=14;" parent="1" vertex="1">
                    <mxGeometry x="860" y="151" width="160" height="82" as="geometry"/>
                </mxCell>
                <mxCell id="104" value="id" style="shape=partialRectangle;top=0;left=0;right=0;bottom=1;align=left;verticalAlign=middle;fillColor=none;spacingLeft=34;spacingRight=4;overflow=hidden;rotatable=0;points=[[0,0.5],[1,0.5]];portConstraint=eastwest;dropTarget=0;fontStyle=5;fontSize=12;" parent="103" vertex="1">
                    <mxGeometry y="26" width="160" height="30" as="geometry"/>
                </mxCell>
                <mxCell id="105" value="PK" style="shape=partialRectangle;top=0;left=0;bottom=0;fillColor=none;align=left;verticalAlign=middle;spacingLeft=4;spacingRight=4;overflow=hidden;rotatable=0;points=[];portConstraint=eastwest;part=1;fontSize=12;" parent="104" vertex="1" connectable="0">
                    <mxGeometry width="30" height="30" as="geometry"/>
                </mxCell>
                <mxCell id="108" value="request_id" style="shape=partialRectangle;top=0;left=0;right=0;bottom=0;align=left;verticalAlign=top;fillColor=none;spacingLeft=34;spacingRight=4;overflow=hidden;rotatable=0;points=[[0,0.5],[1,0.5]];portConstraint=eastwest;dropTarget=0;fontSize=12;" parent="103" vertex="1">
                    <mxGeometry y="56" width="160" height="26" as="geometry"/>
                </mxCell>
                <mxCell id="109" value="FK" style="shape=partialRectangle;top=0;left=0;bottom=0;fillColor=none;align=left;verticalAlign=top;spacingLeft=4;spacingRight=4;overflow=hidden;rotatable=0;points=[];portConstraint=eastwest;part=1;fontSize=12;" parent="108" vertex="1" connectable="0">
                    <mxGeometry width="30" height="26" as="geometry"/>
                </mxCell>
                <mxCell id="420" style="edgeStyle=orthogonalEdgeStyle;rounded=0;jumpStyle=arc;orthogonalLoop=1;jettySize=auto;html=1;entryX=0;entryY=0.5;entryDx=0;entryDy=0;startArrow=ERmany;startFill=0;sourcePerimeterSpacing=2;endArrow=ERone;endFill=0;targetPerimeterSpacing=2;" edge="1" parent="1" target="167">
                    <mxGeometry relative="1" as="geometry">
                        <mxPoint x="320" y="161" as="sourcePoint"/>
                        <Array as="points">
                            <mxPoint x="460" y="161"/>
                            <mxPoint x="460" y="171"/>
                        </Array>
                    </mxGeometry>
                </mxCell>
                <mxCell id="160" value="Request" style="swimlane;fontStyle=0;childLayout=stackLayout;horizontal=1;startSize=26;horizontalStack=0;resizeParent=1;resizeParentMax=0;resizeLast=0;collapsible=1;marginBottom=0;align=center;fontSize=14;" parent="1" vertex="1">
                    <mxGeometry x="620" y="50" width="160" height="222" as="geometry"/>
                </mxCell>
                <mxCell id="161" value="id" style="shape=partialRectangle;top=0;left=0;right=0;bottom=1;align=left;verticalAlign=middle;fillColor=none;spacingLeft=34;spacingRight=4;overflow=hidden;rotatable=0;points=[[0,0.5],[1,0.5]];portConstraint=eastwest;dropTarget=0;fontStyle=5;fontSize=12;" parent="160" vertex="1">
                    <mxGeometry y="26" width="160" height="30" as="geometry"/>
                </mxCell>
                <mxCell id="162" value="PK" style="shape=partialRectangle;top=0;left=0;bottom=0;fillColor=none;align=left;verticalAlign=middle;spacingLeft=4;spacingRight=4;overflow=hidden;rotatable=0;points=[];portConstraint=eastwest;part=1;fontSize=12;" parent="161" vertex="1" connectable="0">
                    <mxGeometry width="30" height="30" as="geometry"/>
                </mxCell>
                <mxCell id="163" value="questionies_id" style="shape=partialRectangle;top=0;left=0;right=0;bottom=0;align=left;verticalAlign=top;fillColor=none;spacingLeft=34;spacingRight=4;overflow=hidden;rotatable=0;points=[[0,0.5],[1,0.5]];portConstraint=eastwest;dropTarget=0;fontSize=12;" parent="160" vertex="1">
                    <mxGeometry y="56" width="160" height="26" as="geometry"/>
                </mxCell>
                <mxCell id="164" value="FK" style="shape=partialRectangle;top=0;left=0;bottom=0;fillColor=none;align=left;verticalAlign=top;spacingLeft=4;spacingRight=4;overflow=hidden;rotatable=0;points=[];portConstraint=eastwest;part=1;fontSize=12;" parent="163" vertex="1" connectable="0">
                    <mxGeometry width="30" height="26" as="geometry"/>
                </mxCell>
                <mxCell id="165" value="target_id" style="shape=partialRectangle;top=0;left=0;right=0;bottom=0;align=left;verticalAlign=top;fillColor=none;spacingLeft=34;spacingRight=4;overflow=hidden;rotatable=0;points=[[0,0.5],[1,0.5]];portConstraint=eastwest;dropTarget=0;fontSize=12;" parent="160" vertex="1">
                    <mxGeometry y="82" width="160" height="26" as="geometry"/>
                </mxCell>
                <mxCell id="166" value="FK" style="shape=partialRectangle;top=0;left=0;bottom=0;fillColor=none;align=left;verticalAlign=top;spacingLeft=4;spacingRight=4;overflow=hidden;rotatable=0;points=[];portConstraint=eastwest;part=1;fontSize=12;" parent="165" vertex="1" connectable="0">
                    <mxGeometry width="30" height="26" as="geometry"/>
                </mxCell>
                <mxCell id="167" value="respondent_id" style="shape=partialRectangle;top=0;left=0;right=0;bottom=0;align=left;verticalAlign=top;fillColor=none;spacingLeft=34;spacingRight=4;overflow=hidden;rotatable=0;points=[[0,0.5],[1,0.5]];portConstraint=eastwest;dropTarget=0;fontSize=12;" parent="160" vertex="1">
                    <mxGeometry y="108" width="160" height="26" as="geometry"/>
                </mxCell>
                <mxCell id="168" value="FK" style="shape=partialRectangle;top=0;left=0;bottom=0;fillColor=none;align=left;verticalAlign=top;spacingLeft=4;spacingRight=4;overflow=hidden;rotatable=0;points=[];portConstraint=eastwest;part=1;fontSize=12;" parent="167" vertex="1" connectable="0">
                    <mxGeometry width="30" height="26" as="geometry"/>
                </mxCell>
                <mxCell id="335" value="create_date" style="shape=partialRectangle;top=0;left=0;right=0;bottom=0;align=left;verticalAlign=top;fillColor=none;spacingLeft=34;spacingRight=4;overflow=hidden;rotatable=0;points=[[0,0.5],[1,0.5]];portConstraint=eastwest;dropTarget=0;fontSize=12;" vertex="1" parent="160">
                    <mxGeometry y="134" width="160" height="26" as="geometry"/>
                </mxCell>
                <mxCell id="336" value="" style="shape=partialRectangle;top=0;left=0;bottom=0;fillColor=none;align=left;verticalAlign=top;spacingLeft=4;spacingRight=4;overflow=hidden;rotatable=0;points=[];portConstraint=eastwest;part=1;fontSize=12;" vertex="1" connectable="0" parent="335">
                    <mxGeometry width="30" height="26" as="geometry"/>
                </mxCell>
                <mxCell id="337" value="expiration_date" style="shape=partialRectangle;top=0;left=0;right=0;bottom=0;align=left;verticalAlign=top;fillColor=none;spacingLeft=34;spacingRight=4;overflow=hidden;rotatable=0;points=[[0,0.5],[1,0.5]];portConstraint=eastwest;dropTarget=0;fontSize=12;" vertex="1" parent="160">
                    <mxGeometry y="160" width="160" height="26" as="geometry"/>
                </mxCell>
                <mxCell id="338" value="" style="shape=partialRectangle;top=0;left=0;bottom=0;fillColor=none;align=left;verticalAlign=top;spacingLeft=4;spacingRight=4;overflow=hidden;rotatable=0;points=[];portConstraint=eastwest;part=1;fontSize=12;" vertex="1" connectable="0" parent="337">
                    <mxGeometry width="30" height="26" as="geometry"/>
                </mxCell>
                <mxCell id="413" value="request_maker_id" style="shape=partialRectangle;top=0;left=0;right=0;bottom=0;align=left;verticalAlign=top;fillColor=none;spacingLeft=34;spacingRight=4;overflow=hidden;rotatable=0;points=[[0,0.5],[1,0.5]];portConstraint=eastwest;dropTarget=0;fontSize=12;" vertex="1" parent="160">
                    <mxGeometry y="186" width="160" height="26" as="geometry"/>
                </mxCell>
                <mxCell id="414" value="FK" style="shape=partialRectangle;top=0;left=0;bottom=0;fillColor=none;align=left;verticalAlign=top;spacingLeft=4;spacingRight=4;overflow=hidden;rotatable=0;points=[];portConstraint=eastwest;part=1;fontSize=12;" vertex="1" connectable="0" parent="413">
                    <mxGeometry width="30" height="26" as="geometry"/>
                </mxCell>
                <mxCell id="169" value="" style="shape=partialRectangle;top=0;left=0;right=0;bottom=0;align=left;verticalAlign=top;fillColor=none;spacingLeft=34;spacingRight=4;overflow=hidden;rotatable=0;points=[[0,0.5],[1,0.5]];portConstraint=eastwest;dropTarget=0;fontSize=12;" parent="160" vertex="1">
                    <mxGeometry y="212" width="160" height="10" as="geometry"/>
                </mxCell>
                <mxCell id="170" value="" style="shape=partialRectangle;top=0;left=0;bottom=0;fillColor=none;align=left;verticalAlign=top;spacingLeft=4;spacingRight=4;overflow=hidden;rotatable=0;points=[];portConstraint=eastwest;part=1;fontSize=12;" parent="169" vertex="1" connectable="0">
                    <mxGeometry width="30" height="10" as="geometry"/>
                </mxCell>
                <mxCell id="423" style="edgeStyle=orthogonalEdgeStyle;rounded=0;jumpStyle=arc;orthogonalLoop=1;jettySize=auto;html=1;startArrow=ERone;startFill=0;sourcePerimeterSpacing=2;endArrow=ERone;endFill=0;targetPerimeterSpacing=2;entryX=1.002;entryY=0.871;entryDx=0;entryDy=0;entryPerimeter=0;" edge="1" parent="1" source="413" target="4">
                    <mxGeometry relative="1" as="geometry">
                        <mxPoint x="400" y="190" as="targetPoint"/>
                        <Array as="points">
                            <mxPoint x="450" y="249"/>
                            <mxPoint x="450" y="172"/>
                        </Array>
                    </mxGeometry>
                </mxCell>
                <mxCell id="259" value="UserNotification" style="swimlane;fontStyle=0;childLayout=stackLayout;horizontal=1;startSize=26;horizontalStack=0;resizeParent=1;resizeParentMax=0;resizeLast=0;collapsible=1;marginBottom=0;align=center;fontSize=14;" parent="1" vertex="1">
                    <mxGeometry x="400" y="-66" width="160" height="108" as="geometry"/>
                </mxCell>
                <mxCell id="260" value="id" style="shape=partialRectangle;top=0;left=0;right=0;bottom=1;align=left;verticalAlign=middle;fillColor=none;spacingLeft=34;spacingRight=4;overflow=hidden;rotatable=0;points=[[0,0.5],[1,0.5]];portConstraint=eastwest;dropTarget=0;fontStyle=5;fontSize=12;" parent="259" vertex="1">
                    <mxGeometry y="26" width="160" height="30" as="geometry"/>
                </mxCell>
                <mxCell id="261" value="PK" style="shape=partialRectangle;top=0;left=0;bottom=0;fillColor=none;align=left;verticalAlign=middle;spacingLeft=4;spacingRight=4;overflow=hidden;rotatable=0;points=[];portConstraint=eastwest;part=1;fontSize=12;" parent="260" vertex="1" connectable="0">
                    <mxGeometry width="30" height="30" as="geometry"/>
                </mxCell>
                <mxCell id="342" value="text" style="shape=partialRectangle;top=0;left=0;right=0;bottom=0;align=left;verticalAlign=top;fillColor=none;spacingLeft=34;spacingRight=4;overflow=hidden;rotatable=0;points=[[0,0.5],[1,0.5]];portConstraint=eastwest;dropTarget=0;fontSize=12;" vertex="1" parent="259">
                    <mxGeometry y="56" width="160" height="26" as="geometry"/>
                </mxCell>
                <mxCell id="343" value="" style="shape=partialRectangle;top=0;left=0;bottom=0;fillColor=none;align=left;verticalAlign=top;spacingLeft=4;spacingRight=4;overflow=hidden;rotatable=0;points=[];portConstraint=eastwest;part=1;fontSize=12;" vertex="1" connectable="0" parent="342">
                    <mxGeometry width="30" height="26" as="geometry"/>
                </mxCell>
                <mxCell id="266" value="request_id" style="shape=partialRectangle;top=0;left=0;right=0;bottom=0;align=left;verticalAlign=top;fillColor=none;spacingLeft=34;spacingRight=4;overflow=hidden;rotatable=0;points=[[0,0.5],[1,0.5]];portConstraint=eastwest;dropTarget=0;fontSize=12;" parent="259" vertex="1">
                    <mxGeometry y="82" width="160" height="26" as="geometry"/>
                </mxCell>
                <mxCell id="267" value="FK" style="shape=partialRectangle;top=0;left=0;bottom=0;fillColor=none;align=left;verticalAlign=top;spacingLeft=4;spacingRight=4;overflow=hidden;rotatable=0;points=[];portConstraint=eastwest;part=1;fontSize=12;" parent="266" vertex="1" connectable="0">
                    <mxGeometry width="30" height="26" as="geometry"/>
                </mxCell>
            </root>
        </mxGraphModel>
    </diagram>
</mxfile>